<svg xmlns="http://www.w3.org/2000/svg" xmlns:xlink="http://www.w3.org/1999/xlink" width="1020" zoomAndPan="magnify" viewBox="0 0 765 764.999999" height="1020" preserveAspectRatio="xMidYMid meet" version="1.0"><defs><clipPath id="dfb94b1132"><path d="M 105.949219 164.042969 L 688.699219 164.042969 L 688.699219 601 L 105.949219 601 Z M 105.949219 164.042969 " clip-rule="nonzero"/></clipPath><clipPath id="5cbb85775e"><path d="M 573.652344 78 L 631 78 L 631 212 L 573.652344 212 Z M 573.652344 78 " clip-rule="nonzero"/></clipPath><clipPath id="ed1970facb"><path d="M 637 76.5 L 710.902344 76.5 L 710.902344 213.75 L 637 213.75 Z M 637 76.5 " clip-rule="nonzero"/></clipPath></defs><g clip-path="url(#dfb94b1132)"><path fill="#ffffff" d="M 110.5 541.785156 C 113.015625 541.785156 115.050781 539.75 115.050781 537.234375 L 115.050781 275.546875 C 115.050781 249.328125 136.285156 227.996094 162.382812 227.996094 L 264.769531 227.996094 C 270.652344 227.996094 276.121094 224.574219 278.710938 219.28125 L 296.496094 182.90625 C 299.394531 176.980469 305.507812 173.148438 312.078125 173.148438 L 482.058594 173.148438 C 488.8125 173.148438 495.097656 177.085938 498.074219 183.175781 L 515.726562 219.277344 C 518.316406 224.574219 523.789062 227.996094 529.667969 227.996094 L 632.054688 227.996094 C 658.152344 227.996094 679.386719 249.328125 679.386719 275.546875 L 679.386719 591.847656 L 400.660156 591.847656 C 319.015625 591.847656 250.941406 526.769531 248.90625 446.773438 C 247.855469 406.070312 262.867188 367.65625 291.179688 338.601562 C 319.328125 309.71875 356.988281 293.808594 397.21875 293.808594 C 479.027344 293.808594 545.585938 360.660156 545.585938 442.828125 C 545.585938 445.34375 547.621094 447.378906 550.136719 447.378906 C 552.648438 447.378906 554.6875 445.34375 554.6875 442.828125 C 554.6875 355.640625 484.046875 284.707031 397.21875 284.707031 C 354.511719 284.707031 314.539062 301.59375 284.660156 332.253906 C 254.621094 363.078125 238.691406 403.832031 239.808594 447.003906 C 241.964844 531.890625 314.121094 600.949219 400.660156 600.949219 L 683.664062 600.949219 C 686.175781 600.949219 688.488281 598.640625 688.488281 596.125 L 688.488281 275.546875 C 688.488281 244.308594 663.171875 218.894531 632.054688 218.894531 L 529.667969 218.894531 C 527.203125 218.894531 524.992188 217.507812 523.90625 215.28125 L 506.253906 179.175781 C 501.761719 169.988281 492.261719 164.046875 482.058594 164.046875 L 312.078125 164.046875 C 302.058594 164.046875 292.726562 169.882812 288.316406 178.910156 L 270.53125 215.28125 C 269.445312 217.507812 267.234375 218.894531 264.769531 218.894531 L 233.378906 218.894531 L 233.378906 214.109375 C 233.378906 206.578125 227.253906 200.457031 219.726562 200.457031 L 183.316406 200.457031 C 175.789062 200.457031 169.664062 206.578125 169.664062 214.109375 L 169.664062 218.894531 L 162.382812 218.894531 C 131.265625 218.894531 105.949219 244.308594 105.949219 275.546875 L 105.949219 537.234375 C 105.949219 539.75 107.988281 541.785156 110.5 541.785156 Z M 178.765625 214.109375 C 178.765625 211.597656 180.808594 209.558594 183.316406 209.558594 L 219.726562 209.558594 C 222.234375 209.558594 224.277344 211.597656 224.277344 214.109375 L 224.277344 218.894531 L 178.765625 218.894531 Z M 178.765625 214.109375 " fill-opacity="1" fill-rule="nonzero"/></g><path fill="#ffffff" d="M 476.597656 195.085938 C 479.109375 195.085938 481.148438 193.046875 481.148438 190.535156 C 481.148438 188.023438 479.109375 185.984375 476.597656 185.984375 L 317.542969 185.984375 C 315.027344 185.984375 312.992188 188.023438 312.992188 190.535156 C 312.992188 193.046875 315.027344 195.085938 317.542969 195.085938 Z M 476.597656 195.085938 " fill-opacity="1" fill-rule="nonzero"/><path fill="#ffffff" d="M 170.574219 270.121094 C 163.046875 270.121094 156.921875 276.246094 156.921875 283.773438 L 156.921875 309.449219 C 156.921875 316.976562 163.046875 323.101562 170.574219 323.101562 L 223.367188 323.101562 C 230.894531 323.101562 237.019531 316.976562 237.019531 309.449219 L 237.019531 283.773438 C 237.019531 276.246094 230.894531 270.121094 223.367188 270.121094 Z M 227.917969 283.773438 L 227.917969 309.449219 C 227.917969 311.957031 225.875 314 223.367188 314 L 170.574219 314 C 168.066406 314 166.023438 311.957031 166.023438 309.449219 L 166.023438 283.773438 C 166.023438 281.265625 168.066406 279.222656 170.574219 279.222656 L 223.367188 279.222656 C 225.875 279.222656 227.917969 281.265625 227.917969 283.773438 Z M 227.917969 283.773438 " fill-opacity="1" fill-rule="nonzero"/><path fill="#ffffff" d="M 397.21875 317.617188 C 328.460938 317.617188 272.519531 373.789062 272.519531 442.828125 C 272.519531 511.871094 328.460938 568.042969 397.21875 568.042969 C 465.980469 568.042969 521.917969 511.871094 521.917969 442.828125 C 521.917969 373.789062 465.980469 317.617188 397.21875 317.617188 Z M 397.21875 558.941406 C 333.480469 558.941406 281.621094 506.851562 281.621094 442.828125 C 281.621094 378.804688 333.480469 326.71875 397.21875 326.71875 C 460.957031 326.71875 512.816406 378.804688 512.816406 442.828125 C 512.816406 506.851562 460.957031 558.941406 397.21875 558.941406 Z M 397.21875 558.941406 " fill-opacity="1" fill-rule="nonzero"/><path fill="#ffffff" d="M 401.769531 366.046875 C 401.769531 363.53125 399.730469 361.496094 397.21875 361.496094 C 352.550781 361.496094 316.210938 397.980469 316.210938 442.828125 C 316.210938 445.34375 318.25 447.378906 320.761719 447.378906 C 323.273438 447.378906 325.3125 445.34375 325.3125 442.828125 C 325.3125 403 357.570312 370.597656 397.21875 370.597656 C 399.730469 370.597656 401.769531 368.558594 401.769531 366.046875 Z M 401.769531 366.046875 " fill-opacity="1" fill-rule="nonzero"/><path fill="#ffffff" d="M 473.675781 438.277344 C 471.164062 438.277344 469.125 440.316406 469.125 442.828125 C 469.125 482.660156 436.867188 515.066406 397.21875 515.066406 C 394.707031 515.066406 392.667969 517.101562 392.667969 519.617188 C 392.667969 522.128906 394.707031 524.167969 397.21875 524.167969 C 441.886719 524.167969 478.226562 487.679688 478.226562 442.828125 C 478.226562 440.316406 476.191406 438.277344 473.675781 438.277344 Z M 473.675781 438.277344 " fill-opacity="1" fill-rule="nonzero"/><path fill="#ffffff" d="M 641.953125 101.714844 C 644.597656 101.714844 646.742188 103.855469 646.742188 106.5 L 646.742188 183.097656 C 646.742188 185.742188 644.597656 187.886719 641.953125 187.886719 C 639.308594 187.886719 637.167969 185.742188 637.167969 183.097656 L 637.167969 106.5 C 637.167969 103.855469 639.308594 101.714844 641.953125 101.714844 Z M 641.953125 101.714844 " fill-opacity="1" fill-rule="evenodd"/><path fill="#ffffff" d="M 598.867188 144.800781 C 598.867188 142.15625 601.011719 140.011719 603.65625 140.011719 L 680.253906 140.011719 C 682.898438 140.011719 685.039062 142.15625 685.039062 144.800781 C 685.039062 147.445312 682.898438 149.585938 680.253906 149.585938 L 603.65625 149.585938 C 601.011719 149.585938 598.867188 147.445312 598.867188 144.800781 Z M 598.867188 144.800781 " fill-opacity="1" fill-rule="evenodd"/><g clip-path="url(#5cbb85775e)"><path fill="#ffffff" d="M 630.632812 81.785156 C 631.292969 84.347656 629.75 86.957031 627.1875 87.613281 C 624.019531 88.429688 620.957031 89.503906 618.015625 90.808594 C 615.597656 91.882812 612.769531 90.792969 611.699219 88.375 C 610.625 85.960938 611.714844 83.128906 614.128906 82.058594 C 617.550781 80.539062 621.117188 79.292969 624.804688 78.34375 C 627.363281 77.683594 629.972656 79.226562 630.632812 81.785156 Z M 602.101562 94.707031 C 603.894531 96.648438 603.78125 99.675781 601.839844 101.472656 C 597.089844 105.875 593.066406 111.042969 589.964844 116.785156 C 588.707031 119.113281 585.804688 119.980469 583.476562 118.722656 C 581.152344 117.464844 580.285156 114.5625 581.539062 112.234375 C 585.144531 105.5625 589.820312 99.558594 595.335938 94.449219 C 597.273438 92.652344 600.304688 92.765625 602.101562 94.707031 Z M 579.757812 129.601562 C 582.367188 130.03125 584.132812 132.496094 583.699219 135.105469 C 583.179688 138.257812 582.910156 141.496094 582.910156 144.800781 C 582.910156 148.105469 583.179688 151.34375 583.699219 154.492188 C 584.132812 157.101562 582.367188 159.566406 579.757812 159.996094 C 577.148438 160.425781 574.683594 158.660156 574.253906 156.054688 C 573.648438 152.386719 573.335938 148.628906 573.335938 144.800781 C 573.335938 140.96875 573.648438 137.210938 574.253906 133.546875 C 574.683594 130.9375 577.148438 129.171875 579.757812 129.601562 Z M 583.476562 170.875 C 585.804688 169.621094 588.707031 170.488281 589.964844 172.8125 C 593.066406 178.554688 597.089844 183.726562 601.839844 188.125 C 603.78125 189.921875 603.894531 192.953125 602.101562 194.890625 C 600.304688 196.832031 597.273438 196.945312 595.335938 195.152344 C 589.820312 190.042969 585.144531 184.035156 581.539062 177.363281 C 580.285156 175.035156 581.152344 172.132812 583.476562 170.875 Z M 611.699219 201.222656 C 612.769531 198.808594 615.597656 197.71875 618.015625 198.789062 C 620.957031 200.097656 624.019531 201.167969 627.1875 201.984375 C 629.75 202.644531 631.292969 205.253906 630.632812 207.8125 C 629.972656 210.375 627.363281 211.914062 624.804688 211.257812 C 621.117188 210.308594 617.550781 209.058594 614.128906 207.542969 C 611.714844 206.46875 610.625 203.640625 611.699219 201.222656 Z M 611.699219 201.222656 " fill-opacity="1" fill-rule="evenodd"/></g><g clip-path="url(#ed1970facb)"><path fill="#ffffff" d="M 637.167969 80.96875 C 637.167969 78.324219 639.308594 76.179688 641.953125 76.179688 C 679.851562 76.179688 710.574219 106.902344 710.574219 144.800781 C 710.574219 147.445312 708.429688 149.585938 705.785156 149.585938 C 703.140625 149.585938 701 147.445312 701 144.800781 C 701 112.191406 674.5625 85.753906 641.953125 85.753906 C 639.308594 85.753906 637.167969 83.613281 637.167969 80.96875 Z M 702.390625 165.945312 C 704.8125 167.003906 705.917969 169.828125 704.863281 172.25 C 694.277344 196.472656 670.101562 213.417969 641.953125 213.417969 C 639.308594 213.417969 637.167969 211.277344 637.167969 208.632812 C 637.167969 205.988281 639.308594 203.84375 641.953125 203.84375 C 666.160156 203.84375 686.972656 189.277344 696.085938 168.414062 C 697.144531 165.992188 699.96875 164.886719 702.390625 165.945312 Z M 702.390625 165.945312 " fill-opacity="1" fill-rule="evenodd"/></g></svg>